<?xml version="1.0" encoding="iso-8859-1"?>
<!-- Generator: Adobe Illustrator 18.0.0, SVG Export Plug-In . SVG Version: 6.00 Build 0)  -->
<!DOCTYPE svg PUBLIC "-//W3C//DTD SVG 1.1//EN" "http://www.w3.org/Graphics/SVG/1.1/DTD/svg11.dtd">
<svg version="1.1" id="Capa_1" xmlns="http://www.w3.org/2000/svg" xmlns:xlink="http://www.w3.org/1999/xlink" x="0px" y="0px"
	 viewBox="0 0 297 297" style="enable-background:new 0 0 297 297;" xml:space="preserve">
<g>
	<path d="M161.242,180.503c38.305-38.305,128.925-128.925,128.925-128.925c9.111-9.111,9.111-23.883,0-32.994L278.416,6.833
		c-9.111-9.111-23.883-9.111-32.994,0c0,0-97.4,97.4-128.925,128.925c-17.011,17.011-40.382,59.948-55.932,78.304
		c-7.669,9.053-33.559,33.559-33.559,33.559l0,0c-6.178-6.178-16.195-6.178-22.373,0h0c-6.178,6.178-6.178,16.195,0,22.373
		l22.373,22.373c6.178,6.178,16.195,6.178,22.373,0h0c6.178-6.178,6.178-16.195,0-22.373h0c0,0,24.506-25.89,33.559-33.559
		C101.294,220.885,144.231,197.514,161.242,180.503z"/>
</g>
<g>
</g>
<g>
</g>
<g>
</g>
<g>
</g>
<g>
</g>
<g>
</g>
<g>
</g>
<g>
</g>
<g>
</g>
<g>
</g>
<g>
</g>
<g>
</g>
<g>
</g>
<g>
</g>
<g>
</g>
</svg>
