<?xml version='1.0' encoding='iso-8859-1'?>
<!DOCTYPE svg PUBLIC '-//W3C//DTD SVG 1.1//EN' 'http://www.w3.org/Graphics/SVG/1.1/DTD/svg11.dtd'>
<svg version="1.1" xmlns="http://www.w3.org/2000/svg" viewBox="0 0 306.539 306.539" xmlns:xlink="http://www.w3.org/1999/xlink" enable-background="new 0 0 306.539 306.539">
  <g>
    <path d="M298.489,88.77c4.446,0,8.05-3.604,8.05-8.05V54.918c0-4.446-3.604-8.05-8.05-8.05h-13.95v-0.05   c0-4.446-3.604-8.05-8.05-8.05h-60.067c-4.446,0-8.049,3.604-8.049,8.05v13.276c0,3.313-2.687,6-6,6h-69.834c-3.314,0-6-2.687-6-6   V46.819c0-4.446-3.604-8.05-8.05-8.05H18.122C8.114,38.77,0,46.883,0,56.892V88.77H298.489z"/>
    <path d="m0,100.77v4.443c0,10.009 8.114,18.123 18.122,18.123h3.491l-20.015,106.774c-1.743,9.298 0.744,18.889 6.786,26.169s15.01,11.491 24.47,11.491h48.624c15.303,0 28.437-10.9 31.256-25.942l10.818-57.713c2.965,0.189 5.962,0.296 8.986,0.296 20.268,0 39.479-4.302 54.094-12.111 16.599-8.871 25.74-21.376 25.74-35.21 0-4.777-1.115-9.39-3.226-13.755h67.342c4.446,0 8.05-3.604 8.05-8.05v-14.515h-284.538zm132.539,63.641c-1.783,0-3.536-0.048-5.269-0.124l4.6-24.541c4.677,6.26 10.613,11.876 18.155,16.056 1.535,0.851 3.198,1.255 4.838,1.255 3.518,0 6.93-1.86 8.756-5.155 2.677-4.83 0.931-10.917-3.9-13.594-6.44-3.569-11.231-8.954-14.798-14.973h38.306c5.826,4.289 9.146,9.119 9.146,13.755 0,12.896-25.589,27.321-59.834,27.321z"/>
  </g>
</svg>
